<svg width="252" height="9" viewBox="0 0 252 9" fill="none" xmlns="http://www.w3.org/2000/svg">
    <path
        d="M1 3.26471C0.447715 3.26471 1.13224e-08 3.71242 0 4.26471C4.82823e-08 4.81699 0.447715 5.26471 1 5.26471V4.26471V3.26471ZM1.1 4.26471L1.1 5.26471L1.45155 5.26471L1.72576 5.04472L1.1 4.26471ZM10 6.75229L9.84269 7.73984L10 6.75229ZM16 2.89352L16.8687 3.38878L16 2.89352ZM24 2.06736L24.6954 1.34873L24 2.06736ZM26 3.53725L25.5512 4.43087L26 3.53725ZM28 4.83427L28.6222 4.05141L28 4.83427ZM30 6.37595L30.5984 5.57477L30 6.37595ZM36 3.15999L36.7498 3.82167L36 3.15999ZM40 3.054L39.0788 3.44318L40 3.054ZM42 3.53127L42.8839 3.99901L42 3.53127ZM44 4.53908L43.0547 4.86533L44 4.53908ZM48 4.06653L47.1939 4.65828L48 4.06653ZM52 4.05738L52.858 3.54371L52 4.05738ZM58 3.1006L58.9194 2.70727L58 3.1006ZM62 3.82125L62.8936 4.27008L62 3.82125ZM76 2.04461L75.7043 1.08933L76 2.04461ZM82 3.99249L82.8361 3.44388L82 3.99249ZM86 6.92238L86.6092 7.71541L86 6.92238ZM90 3.88683L90.6103 4.67899L90 3.88683ZM106 3.58154L106.787 4.19862L106 3.58154ZM110 4.59695L110.93 4.22916L110 4.59695ZM114 3.13802L113.616 4.06143L114 3.13802ZM120 3.84015L119.235 4.48473L120 3.84015ZM122 5.30889L121.728 6.27119L122 5.30889ZM124 6.26759L123.44 7.09602L124 6.26759ZM128 3.7799L127.132 3.28393L128 3.7799ZM130 2.47625L130.408 1.56335L130 2.47625ZM132 2.58563L132.32 3.53306L132 2.58563ZM136 4.17223L135.062 3.82649V3.82649L136 4.17223ZM138 4.56121L137.048 4.86795L138 4.56121ZM140 4.6974L140.948 5.01681L140 4.6974ZM148 4.62882L148.832 4.0736L148 4.62882ZM150 6.35218L150.22 5.37665L150 6.35218ZM152 6.28815L151.722 5.32756L152 6.28815ZM154 4.40055L154.848 4.93098L154 4.40055ZM160 2.705L159.213 2.0878L160 2.705ZM162 2.68009L161.219 3.30481L162 2.68009ZM164 4.10425L164.172 3.11909L164 4.10425ZM168 4.74615L168.936 5.09833L168 4.74615ZM176 5.28088L175.853 4.29172L176 5.28088ZM178 4.34086L177.379 3.55678L178 4.34086ZM180 5.67651L180.905 5.25107L180 5.67651ZM188 2.55414L187.216 3.17432L188 2.55414ZM190 4.39223L189.503 5.25982L190 4.39223ZM194 4.2247L194.957 4.51469L194 4.2247ZM196 4.32258L195.041 4.60489L196 4.32258ZM198 4.9695L198.94 5.31111L198 4.9695ZM200 1.48247L200.593 2.28792L200 1.48247ZM202 1.13417L201.639 2.0666L202 1.13417ZM206 5.37419L205.276 6.06354L206 5.37419ZM208 4.49852L207.112 4.03782L208 4.49852ZM210 3.62584L209.275 4.31417L210 3.62584ZM212 3.33277L211.197 2.73668L212 3.33277ZM216 3.23913L216.196 2.25847L216 3.23913ZM234 2.96591L234.785 2.34627L234 2.96591ZM238 3.18383L237.1 3.61965L238 3.18383ZM248 2.73946L248.724 3.42914L248 2.73946ZM249.75 1.60828L249.858 2.60246L249.75 1.60828ZM250.5 2.89586L251.497 2.96872L251.5 2.93234L251.5 2.89586L250.5 2.89586ZM250.4 4.26471L249.403 4.19185L249.324 5.26471L250.4 5.26471L250.4 4.26471ZM250.5 5.26471C251.052 5.26471 251.5 4.81699 251.5 4.26471C251.5 3.71242 251.052 3.26471 250.5 3.26471L250.5 4.26471L250.5 5.26471ZM1 4.26471V5.26471L1.1 5.26471L1.1 4.26471L1.1 3.26471L1 3.26471V4.26471ZM1.1 4.26471L1.72576 5.04472C2.27025 4.60791 2.50997 4.63868 2.5452 4.647C2.57826 4.65481 2.80357 4.73134 3.089 5.36186L4 4.94945L4.911 4.53705C4.52977 3.6949 3.93841 2.92097 3.0048 2.70053C2.07336 2.4806 1.19641 2.90533 0.474238 3.4847L1.1 4.26471ZM4 4.94945L3.089 5.36186C3.44102 6.13947 3.81446 6.79774 4.21934 7.30348C4.61689 7.80007 5.11011 8.2313 5.72215 8.40833L6 7.4477L6.27785 6.48708C6.22322 6.47128 6.04977 6.38972 5.78066 6.05356C5.51887 5.72656 5.22565 5.23211 4.911 4.53705L4 4.94945ZM6 7.4477L5.72215 8.40833C6.67788 8.68476 7.6225 8.53291 8.4965 8.03301L8 7.16497L7.5035 6.29693C7.04417 6.55966 6.65545 6.5963 6.27785 6.48708L6 7.4477ZM8 7.16497L8.4965 8.03301C8.99396 7.74847 9.43186 7.6744 9.84269 7.73984L10 6.75229L10.1573 5.76474C9.2348 5.61779 8.33937 5.81884 7.5035 6.29693L8 7.16497ZM10 6.75229L9.84269 7.73984C11.0712 7.93553 12.0621 7.16297 12.7993 6.18234L12 5.58143L11.2007 4.98051C10.6046 5.77343 10.2622 5.78144 10.1573 5.76474L10 6.75229ZM12 5.58143L12.7993 6.18234C13.3933 5.3923 13.7186 5.41315 13.8056 5.43038L14 4.44947L14.1944 3.46855C12.9481 3.22152 11.9401 3.997 11.2007 4.98051L12 5.58143ZM14 4.44947L13.8056 5.43038C14.4906 5.56616 15.112 5.33944 15.614 4.94886C16.0938 4.57563 16.5046 4.02756 16.8687 3.38878L16 2.89352L15.1313 2.39827C14.8287 2.92891 14.5729 3.22488 14.386 3.3703C14.2982 3.43856 14.2433 3.4598 14.2216 3.46609C14.2052 3.47083 14.2007 3.46979 14.1944 3.46855L14 4.44947ZM16 2.89352L16.8687 3.38878C17.0042 3.15122 17.0818 3.09407 17.072 3.10096C17.0582 3.11056 17.0054 3.14345 16.9165 3.15846C16.8222 3.17437 16.7318 3.16253 16.6616 3.13726C16.5478 3.09633 16.5666 3.05208 16.6831 3.21702C16.7884 3.3662 16.9214 3.61288 17.0729 3.9876L18 3.61278L18.9271 3.23795C18.7453 2.7882 18.545 2.38657 18.3169 2.06357C18.1001 1.75635 17.7856 1.41607 17.3384 1.25526C16.8184 1.06824 16.3156 1.19017 15.928 1.46038C15.5848 1.69969 15.3292 2.05111 15.1313 2.39827L16 2.89352ZM18 3.61278L17.0729 3.9876C17.4194 4.84466 17.8156 5.57883 18.3025 6.05274C18.5555 6.29903 18.8804 6.52159 19.282 6.61128C19.7047 6.70566 20.1126 6.63041 20.466 6.44426L20 5.55948L19.534 4.6747C19.5541 4.66412 19.6287 4.63942 19.718 4.65936C19.7862 4.67461 19.7778 4.69772 19.6975 4.61956C19.5177 4.44457 19.2472 4.02982 18.9271 3.23795L18 3.61278ZM20 5.55948L20.466 6.44426C21.4216 5.94094 22.206 4.86727 22.8914 3.51952L22 3.06625L21.1086 2.61298C20.4606 3.88727 19.9117 4.47575 19.534 4.6747L20 5.55948ZM22 3.06625L22.8914 3.51952C23.0375 3.2322 23.1677 3.03059 23.2767 2.89628C23.3886 2.7583 23.4496 2.72652 23.4468 2.72789C23.4245 2.73905 23.3533 2.75962 23.2721 2.7406C23.2109 2.72629 23.2234 2.70741 23.3046 2.786L24 2.06736L24.6954 1.34873C24.4433 1.10477 24.1224 0.885597 23.7279 0.793252C23.3134 0.696204 22.9089 0.760997 22.5532 0.938639C21.9154 1.25719 21.4596 1.92284 21.1086 2.61298L22 3.06625ZM24 2.06736L23.3046 2.786C24.0272 3.48517 24.775 4.04105 25.5512 4.43087L26 3.53725L26.4488 2.64363C25.8917 2.36379 25.3062 1.93974 24.6954 1.34873L24 2.06736ZM26 3.53725L25.5512 4.43087C26.1485 4.73087 26.7576 5.12418 27.3778 5.61713L28 4.83427L28.6222 4.05141C27.9091 3.48466 27.1848 3.01329 26.4488 2.64363L26 3.53725ZM28 4.83427L27.3778 5.61713C28.0521 6.15306 28.7267 6.67307 29.4016 7.17714L30 6.37595L30.5984 5.57477C29.94 5.08295 29.2812 4.57517 28.6222 4.05141L28 4.83427ZM30 6.37595L29.4016 7.17714C29.9203 7.56459 30.558 7.76624 31.2452 7.59243C31.8788 7.43218 32.3828 6.99351 32.7815 6.49399L32 5.87013L31.2185 5.24627C30.9505 5.58191 30.7879 5.64512 30.7548 5.65348C30.747 5.65545 30.7469 5.65537 30.7398 5.65361C30.7272 5.65049 30.6802 5.63585 30.5984 5.57477L30 6.37595ZM32 5.87013L32.7815 6.49399C33.3793 5.74517 33.8469 5.49313 34.16 5.44236L34 4.45525L33.84 3.46814C32.8197 3.63355 31.9541 4.32475 31.2185 5.24627L32 5.87013ZM34 4.45525L34.16 5.44236C35.1437 5.28288 36.0026 4.66837 36.7498 3.82167L36 3.15999L35.2502 2.4983C34.6641 3.16245 34.1896 3.41146 33.84 3.46814L34 4.45525ZM36 3.15999L36.7498 3.82167C37.3734 3.11507 37.9767 2.57619 38.5565 2.1878L38 1.35698L37.4435 0.526161C36.6899 1.03094 35.96 1.69405 35.2502 2.4983L36 3.15999ZM38 1.35698L38.5565 2.1878C38.5725 2.17713 38.515 2.21717 38.411 2.20788C38.3173 2.1995 38.2959 2.16033 38.353 2.2088C38.4996 2.33318 38.7587 2.68554 39.0788 3.44318L40 3.054L40.9212 2.66481C40.5746 1.84452 40.1671 1.12509 39.647 0.683799C39.3708 0.449428 39.0161 0.253955 38.589 0.215807C38.1516 0.176744 37.7609 0.313543 37.4435 0.526161L38 1.35698ZM40 3.054L39.0788 3.44318C39.2622 3.87728 39.4677 4.26892 39.7068 4.58031C39.9351 4.87774 40.2789 5.21275 40.7679 5.32945C41.3182 5.46076 41.7978 5.26089 42.1366 4.98123C42.4498 4.72269 42.6904 4.36455 42.8839 3.99901L42 3.53127L41.1161 3.06352C41.0501 3.18829 40.9924 3.27961 40.9449 3.34408C40.8965 3.40973 40.8678 3.43519 40.8634 3.43886C40.8597 3.44187 40.8943 3.41211 40.9684 3.39036C41.0499 3.36647 41.1436 3.36294 41.2321 3.38407C41.3138 3.40357 41.3568 3.43568 41.3604 3.43853C41.3627 3.44027 41.3387 3.42174 41.2932 3.36251C41.1989 3.23964 41.0711 3.01967 40.9212 2.66481L40 3.054ZM42 3.53127L42.8839 3.99901C43.0244 3.73349 43.0995 3.68686 43.0695 3.70763C43.0415 3.72703 42.9641 3.77146 42.8441 3.7828C42.719 3.79461 42.6148 3.76412 42.55 3.73144C42.4942 3.70331 42.4829 3.68195 42.5094 3.71109C42.5346 3.73893 42.5789 3.7959 42.638 3.89643C42.7578 4.10027 42.8992 4.41484 43.0547 4.86533L44 4.53908L44.9453 4.21283C44.7674 3.69752 44.5755 3.24573 44.362 2.88268C44.1628 2.54391 43.8749 2.15948 43.45 1.94538C43.2185 1.82872 42.9477 1.7641 42.6559 1.79166C42.3692 1.81875 42.1252 1.92879 41.9305 2.06367C41.5672 2.31539 41.309 2.69917 41.1161 3.06352L42 3.53127ZM44 4.53908L43.0547 4.86533C43.2328 5.38128 43.4291 5.83633 43.6548 6.19325C43.858 6.51464 44.2 6.9428 44.7432 7.08711C45.3982 7.26111 45.9198 6.93378 46.2242 6.61406C46.5149 6.30876 46.738 5.89305 46.9211 5.45969L46 5.0704L45.0789 4.6811C45.0077 4.84946 44.9432 4.97854 44.887 5.07447C44.8296 5.17257 44.7906 5.21936 44.7758 5.23491C44.7597 5.25179 44.7935 5.20969 44.8848 5.17387C44.9916 5.13197 45.126 5.11942 45.2568 5.15415C45.3147 5.16955 45.358 5.19066 45.3861 5.20734C45.4135 5.22366 45.4273 5.23625 45.4285 5.23736C45.4297 5.2385 45.422 5.23151 45.4065 5.21205C45.3911 5.19276 45.3704 5.16431 45.3452 5.1244C45.2376 4.95414 45.1005 4.6627 44.9453 4.21283L44 4.53908ZM46 5.0704L46.9211 5.45969C47.072 5.10263 47.2073 4.8543 47.3203 4.69235C47.4403 4.52027 47.4915 4.50858 47.4486 4.5301C47.4188 4.54507 47.3622 4.56576 47.2859 4.5685C47.2087 4.57127 47.1453 4.55445 47.1049 4.53704C47.0413 4.50971 47.0794 4.5023 47.1939 4.65828L48 4.06653L48.8061 3.47477C48.5873 3.17667 48.292 2.87053 47.8952 2.69981C47.4488 2.50779 46.9734 2.53082 46.5514 2.74263C46.1752 2.93147 45.8931 3.24244 45.6797 3.54836C45.4593 3.86443 45.2613 4.24946 45.0789 4.6811L46 5.0704ZM48 4.06653L47.1939 4.65828C47.589 5.19655 48.2135 5.77351 49.0791 5.70487C49.8977 5.63995 50.4634 5.0233 50.8356 4.45732L50 3.90792L49.1644 3.35852C49.0332 3.55805 48.9334 3.66079 48.8753 3.70732C48.8217 3.75015 48.8395 3.71759 48.9209 3.71113C49.0102 3.70405 49.0578 3.73721 49.0399 3.72575C49.0103 3.70674 48.9284 3.64133 48.8061 3.47477L48 4.06653ZM50 3.90792L50.8356 4.45732C50.9643 4.26155 51.0526 4.1814 51.0859 4.15729C51.099 4.14784 51.0899 4.15708 51.0584 4.1673C51.0243 4.17834 50.9778 4.18598 50.9255 4.18207C50.8162 4.17391 50.7863 4.12609 50.8426 4.17517C50.9026 4.2276 51.0065 4.34467 51.142 4.57105L52 4.05738L52.858 3.54371C52.504 2.95248 51.9383 2.25219 51.0745 2.18763C50.1571 2.11908 49.534 2.79642 49.1644 3.35852L50 3.90792ZM52 4.05738L51.142 4.57105C51.4896 5.15169 52.1041 5.91824 53.0602 5.86056C53.5287 5.8323 53.9039 5.60465 54.1793 5.34975C54.4516 5.09768 54.6784 4.77302 54.8731 4.42425L54 3.93673L53.1269 3.44922C53.0597 3.56945 52.9986 3.66426 52.9447 3.73752C52.8904 3.81131 52.8483 3.85649 52.8207 3.88202C52.7627 3.93567 52.8046 3.87234 52.9398 3.86419C53.0045 3.86029 53.0603 3.87184 53.0989 3.88623C53.1342 3.89937 53.1432 3.91025 53.1271 3.89724C53.1105 3.88393 53.0766 3.85274 53.0278 3.79241C52.9795 3.73258 52.9224 3.65131 52.858 3.54371L52 4.05738ZM54 3.93673L54.8731 4.42425C55.5099 3.28379 56.086 2.61068 56.5687 2.27704L56 1.45446L55.4314 0.631885C54.5806 1.21998 53.8234 2.20172 53.1269 3.44922L54 3.93673ZM56 1.45446L56.5687 2.27704C56.5905 2.26193 56.5377 2.30276 56.4343 2.29594C56.3384 2.28963 56.3123 2.24945 56.3645 2.29245C56.5042 2.40743 56.7607 2.74621 57.0806 3.49394L58 3.1006L58.9194 2.70727C58.5726 1.8967 58.1625 1.18198 57.6355 0.748241C57.3544 0.516885 56.9949 0.328548 56.5657 0.300271C56.1289 0.271492 55.7428 0.416559 55.4314 0.631885L56 1.45446ZM58 3.1006L57.0806 3.49394C57.4312 4.3134 57.8055 5.00308 58.2162 5.52143C58.6165 6.02682 59.1412 6.48183 59.8161 6.60811L60 5.62517L60.1839 4.64223C60.1921 4.64376 60.0501 4.61563 59.7838 4.2795C59.5278 3.95633 59.2355 3.4461 58.9194 2.70727L58 3.1006ZM60 5.62517L59.8161 6.60811C60.5494 6.74534 61.1861 6.44654 61.6698 6.01032C62.1362 5.58964 62.5362 4.98171 62.8936 4.27008L62 3.82125L61.1064 3.37243C60.7971 3.98816 60.5305 4.34457 60.3302 4.52518C60.1472 4.69028 60.1172 4.62975 60.1839 4.64223L60 5.62517ZM62 3.82125L62.8936 4.27008C63.0381 3.98239 63.16 3.80357 63.2499 3.70171C63.3436 3.59542 63.3538 3.62755 63.2659 3.65179C63.2171 3.66528 63.1583 3.67004 63.0988 3.66094C63.0417 3.65221 63.0068 3.63427 62.9972 3.62865C62.9894 3.62413 63.0565 3.66413 63.1788 3.8401L64 3.26952L64.8212 2.69894C64.4335 2.14089 63.7223 1.4512 62.7341 1.72381C62.3129 1.84 61.9897 2.10702 61.7501 2.37855C61.5067 2.65451 61.2952 2.99644 61.1064 3.37243L62 3.82125ZM64 3.26952L63.1788 3.8401C63.5587 4.38694 64.0095 4.86227 64.5577 5.13263C65.1546 5.42705 65.8015 5.4436 66.4125 5.16693L66 4.25598L65.5875 3.34503C65.5432 3.36508 65.5237 3.36442 65.5202 3.36435C65.5161 3.36426 65.4927 3.3638 65.4424 3.33894C65.3238 3.28048 65.108 3.11164 64.8212 2.69894L64 3.26952ZM66 4.25598L66.4125 5.16693C66.4618 5.14463 66.4876 5.14329 66.4978 5.14332C66.508 5.14334 66.5343 5.14481 66.5841 5.16762C66.6998 5.22051 66.9106 5.37492 67.1928 5.76083L68 5.17053L68.8072 4.58022C68.4227 4.05454 67.9669 3.60073 67.4159 3.34876C66.8201 3.07634 66.1847 3.07459 65.5875 3.34503L66 4.25598ZM68 5.17053L67.1928 5.76083C67.4093 6.05689 67.6896 6.35047 68.0545 6.53206C68.4557 6.7317 68.9096 6.76879 69.3488 6.60534C69.7477 6.45689 70.0512 6.17451 70.2789 5.89176C70.5119 5.60236 70.7175 5.24753 70.9038 4.85416L70 4.42618L69.0962 3.9982C68.9492 4.30875 68.8214 4.51286 68.7211 4.63745C68.6154 4.76869 68.5857 4.75532 68.6512 4.73094C68.6906 4.7163 68.7471 4.70467 68.8126 4.70878C68.877 4.71282 68.9231 4.73033 68.9455 4.7415C68.9771 4.75721 68.924 4.73996 68.8072 4.58022L68 5.17053ZM70 4.42618L70.9038 4.85416C70.9738 4.7064 71.0378 4.5899 71.0947 4.50017C71.1522 4.40938 71.1959 4.35622 71.2224 4.32858C71.2495 4.30027 71.2453 4.31249 71.2051 4.33305C71.1592 4.35652 71.0795 4.38357 70.9776 4.38128C70.8764 4.37901 70.8021 4.34899 70.7641 4.32783C70.7309 4.30941 70.7323 4.30202 70.7633 4.33571C70.7934 4.36857 70.8396 4.42735 70.8986 4.52315C70.957 4.61793 71.0222 4.7394 71.0928 4.89173L72 4.47106L72.9072 4.05039C72.7202 3.64696 72.5022 3.27259 72.2367 2.98333C71.9741 2.69715 71.5687 2.39404 71.0224 2.38178C70.4693 2.36937 70.0504 2.66065 69.7776 2.94558C69.5053 3.23004 69.2842 3.60124 69.0962 3.9982L70 4.42618ZM72 4.47106L71.0928 4.89173C71.2799 5.2952 71.4983 5.67021 71.7652 5.95933C72.0298 6.24595 72.4394 6.54882 72.9901 6.55428C73.5438 6.55978 73.9595 6.2621 74.2285 5.97601C74.4984 5.689 74.7182 5.31539 74.9057 4.91479L74 4.49092L73.0943 4.06704C73.024 4.2172 72.9595 4.33608 72.902 4.42805C72.8438 4.52108 72.7992 4.57642 72.7715 4.60591C72.7431 4.63616 72.7455 4.6252 72.784 4.60497C72.8279 4.58181 72.9069 4.55336 73.0099 4.55438C73.1125 4.5554 73.1892 4.58517 73.2296 4.60729C73.2649 4.62657 73.2649 4.63537 73.2348 4.60273C73.2054 4.57093 73.1597 4.5131 73.1009 4.41785C73.0428 4.32364 72.9778 4.20257 72.9072 4.05039L72 4.47106ZM74 4.49092L74.9057 4.91479C75.2194 4.24448 75.512 3.76456 75.7742 3.44391C76.0424 3.11584 76.223 3.02239 76.2957 2.99989L76 2.04461L75.7043 1.08933C75.1103 1.2732 74.6243 1.69064 74.2258 2.17801C73.8213 2.67279 73.4472 3.31284 73.0943 4.06704L74 4.49092ZM76 2.04461L76.2957 2.99989C76.3406 2.98601 76.3913 2.97547 76.5107 3.04248C76.6621 3.1274 76.8922 3.32693 77.1802 3.7393L78 3.16664L78.8198 2.59399C78.0952 1.55668 77.0348 0.677476 75.7043 1.08933L76 2.04461ZM78 3.16664L77.1802 3.7393C77.5635 4.28805 78.0946 4.82476 78.8196 4.95771C79.6195 5.10436 80.2732 4.70328 80.729 4.21792L80 3.53336L79.271 2.8488C79.1671 2.95953 79.1065 2.99035 79.0967 2.9947C79.0938 2.99598 79.103 2.99161 79.1224 2.98912C79.1424 2.98655 79.1629 2.98731 79.1804 2.9905C79.2156 2.99696 79.1987 3.00526 79.1282 2.94837C79.0556 2.88976 78.9505 2.78107 78.8198 2.59399L78 3.16664ZM80 3.53336L80.729 4.21792C80.8309 4.10936 80.8856 4.08539 80.8854 4.08549C80.8709 4.09154 80.8249 4.10153 80.7763 4.09036C80.7408 4.08222 80.7628 4.07585 80.8407 4.14421C80.9197 4.21349 81.0298 4.33677 81.1639 4.5411L82 3.99249L82.8361 3.44388C82.4616 2.87316 81.9432 2.30622 81.2237 2.14107C80.4072 1.95362 79.7335 2.35636 79.271 2.8488L80 3.53336ZM82 3.99249L81.1639 4.5411C81.8538 5.59248 82.5532 6.50786 83.264 7.28055L84 6.60352L84.736 5.92649C84.1134 5.2498 83.4795 4.42449 82.8361 3.44388L82 3.99249ZM84 6.60352L83.264 7.28055C83.6822 7.73509 84.2052 8.11266 84.8426 8.21429C85.511 8.32085 86.1149 8.09508 86.6092 7.71541L86 6.92238L85.3908 6.12936C85.3003 6.19886 85.2395 6.22451 85.2088 6.23385C85.1826 6.24184 85.1693 6.24111 85.1574 6.23923C85.1282 6.23456 84.9845 6.19665 84.736 5.92649L84 6.60352ZM86 6.92238L86.6092 7.71541C87.2726 7.20581 87.9359 6.70279 88.5992 6.20634L88 5.40575L87.4008 4.60515C86.7308 5.10665 86.0608 5.61472 85.3908 6.12936L86 6.92238ZM88 5.40575L88.5992 6.20634C89.2696 5.70455 89.94 5.19543 90.6103 4.67899L90 3.88683L89.3897 3.09468C88.7267 3.6055 88.0637 4.109 87.4008 4.60515L88 5.40575ZM90 3.88683L90.6103 4.67899C91.1174 4.2883 91.5151 4.2077 91.8475 4.25899L92 3.27069L92.1525 2.28239C91.1516 2.12793 90.2159 2.4581 89.3897 3.09468L90 3.88683ZM92 3.27069L91.8475 4.25899C92.3176 4.33154 92.8339 4.55075 93.3996 4.97548L94 4.17578L94.6004 3.37607C93.8328 2.79976 93.0157 2.41559 92.1525 2.28239L92 3.27069ZM94 4.17578L93.3996 4.97548C93.894 5.34664 94.4922 5.56402 95.1514 5.46305C95.7827 5.36635 96.3053 5.00186 96.7265 4.55664L96 3.86943L95.2735 3.18222C95.028 3.44175 94.884 3.48069 94.8486 3.48611C94.8411 3.48725 94.7727 3.50543 94.6004 3.37607L94 4.17578ZM96 3.86943L96.7265 4.55664C97.2565 3.99633 97.5668 3.999 97.7417 4.04575L98 3.07968L98.2583 2.11362C97.0998 1.80387 96.0768 2.33304 95.2735 3.18222L96 3.86943ZM98 3.07968L97.7417 4.04575C98.3134 4.1986 98.8983 4.44477 99.4972 4.79311L100 3.9287L100.503 3.06428C99.7683 2.63711 99.02 2.31727 98.2583 2.11362L98 3.07968ZM100 3.9287L99.4972 4.79311C100.008 5.08991 100.579 5.61891 101.198 6.44905L102 5.85122L102.802 5.25339C102.087 4.29568 101.326 3.543 100.503 3.06428L100 3.9287ZM102 5.85122L101.198 6.44905C101.593 6.97799 102.154 7.49544 102.914 7.56124C103.712 7.63034 104.332 7.17412 104.76 6.67489L104 6.02443L103.24 5.37396C103.127 5.50616 103.053 5.55661 103.024 5.57178C103.006 5.58167 103.033 5.56411 103.086 5.5687C103.134 5.57282 103.135 5.58917 103.081 5.55094C103.023 5.50947 102.927 5.4217 102.802 5.25339L102 5.85122ZM104 6.02443L104.76 6.67489C105.436 5.88494 106.112 5.05948 106.787 4.19862L106 3.58154L105.213 2.96447C104.555 3.80388 103.897 4.60701 103.24 5.37396L104 6.02443ZM106 3.58154L106.787 4.19862C107.385 3.43529 107.838 3.21382 108.118 3.1805L108 2.18749L107.882 1.19448C106.829 1.31963 105.948 2.02753 105.213 2.96447L106 3.58154ZM108 2.18749L108.118 3.1805C107.957 3.19965 107.988 3.07671 108.231 3.36913C108.464 3.6509 108.751 4.15912 109.07 4.96475L110 4.59695L110.93 4.22916C110.582 3.34924 110.202 2.61312 109.769 2.09173C109.346 1.581 108.71 1.0961 107.882 1.19448L108 2.18749ZM110 4.59695L109.07 4.96475C109.252 5.42384 109.456 5.83753 109.697 6.1619C109.923 6.46584 110.292 6.84036 110.839 6.92973C111.445 7.02886 111.919 6.72926 112.214 6.42934C112.5 6.13787 112.724 5.74746 112.91 5.33738L112 4.92381L111.09 4.51023C111.019 4.66453 110.956 4.78352 110.9 4.8727C110.844 4.96344 110.805 5.00989 110.786 5.02851C110.767 5.04789 110.789 5.01942 110.857 4.99037C110.935 4.95701 111.043 4.93662 111.161 4.95592C111.272 4.97395 111.336 5.01772 111.352 5.02985C111.366 5.03999 111.347 5.02887 111.303 4.96909C111.26 4.91109 111.204 4.82314 111.139 4.69641C111.074 4.57075 111.004 4.41608 110.93 4.22916L110 4.59695ZM112 4.92381L112.91 5.33738C113.225 4.64459 113.489 4.2807 113.666 4.12256C113.745 4.05161 113.768 4.05783 113.732 4.06645C113.682 4.0784 113.633 4.06858 113.616 4.06143L114 3.13802L114.384 2.21462C114.033 2.06891 113.651 2.02958 113.268 2.12106C112.898 2.20922 112.588 2.40402 112.334 2.63071C111.844 3.06783 111.441 3.73539 111.09 4.51023L112 4.92381ZM114 3.13802L113.616 4.06143C114.151 4.28374 114.718 4.32384 115.28 4.16025C115.822 4.00237 116.295 3.67389 116.707 3.26293L116 2.55527L115.293 1.84761C115.038 2.10227 114.845 2.20372 114.72 2.2401C114.615 2.27075 114.516 2.26942 114.384 2.21462L114 3.13802ZM116 2.55527L116.707 3.26293C116.955 3.01497 117.128 2.93981 117.219 2.91922C117.288 2.90386 117.373 2.90229 117.519 2.98217L118 2.10544L118.481 1.2287C117.96 0.942848 117.379 0.833382 116.781 0.967966C116.205 1.09732 115.712 1.42995 115.293 1.84761L116 2.55527ZM118 2.10544L117.519 2.98217C118.046 3.27151 118.621 3.75644 119.235 4.48473L120 3.84015L120.765 3.19557C120.045 2.34237 119.287 1.67083 118.481 1.2287L118 2.10544ZM120 3.84015L119.235 4.48473C119.971 5.35732 120.796 6.00777 121.728 6.27119L122 5.30889L122.272 4.34658C121.871 4.23318 121.362 3.90446 120.765 3.19557L120 3.84015ZM122 5.30889L121.728 6.27119C122.277 6.42637 122.848 6.69556 123.44 7.09602L124 6.26759L124.56 5.43915C123.819 4.93818 123.056 4.56823 122.272 4.34658L122 5.30889ZM124 6.26759L123.44 7.09602C123.907 7.41192 124.438 7.60669 125.015 7.59791C125.591 7.58914 126.116 7.37929 126.577 7.05391L126 6.23717L125.423 5.42044C125.217 5.56605 125.075 5.59676 124.985 5.59814C124.896 5.59949 124.759 5.57397 124.56 5.43915L124 6.26759ZM126 6.23717L126.577 7.05391C127.416 6.4611 128.17 5.49793 128.868 4.27587L128 3.7799L127.132 3.28393C126.496 4.39625 125.917 5.07125 125.423 5.42044L126 6.23717ZM128 3.7799L128.868 4.27587C129.17 3.74714 129.408 3.50653 129.546 3.41634C129.604 3.37846 129.621 3.38292 129.602 3.38485C129.579 3.38721 129.57 3.37951 129.592 3.38915L130 2.47625L130.408 1.56335C129.733 1.26142 129.042 1.35784 128.454 1.74085C127.926 2.08521 127.496 2.64547 127.132 3.28393L128 3.7799ZM130 2.47625L129.592 3.38915C130.479 3.78567 131.405 3.84204 132.32 3.53306L132 2.58563L131.68 1.63821C131.262 1.77955 130.855 1.763 130.408 1.56335L130 2.47625ZM132 2.58563L132.32 3.53306C132.283 3.54551 132.229 3.54619 132.19 3.53344C132.167 3.52601 132.204 3.53162 132.296 3.62251C132.493 3.81751 132.765 4.22916 133.082 4.96298L134 4.56702L134.918 4.17107C134.568 3.3588 134.174 2.66718 133.704 2.20171C133.206 1.709 132.493 1.36356 131.68 1.63821L132 2.58563ZM134 4.56702L133.082 4.96298C133.266 5.39003 133.488 5.79608 133.772 6.09795C134.064 6.40754 134.557 6.73466 135.194 6.60896C135.75 6.49923 136.11 6.09269 136.324 5.78086C136.558 5.44035 136.759 5.00553 136.938 4.51798L136 4.17223L135.062 3.82649C134.908 4.24358 134.775 4.50369 134.676 4.64839C134.627 4.71873 134.604 4.73635 134.613 4.7291C134.624 4.72035 134.688 4.67015 134.806 4.64682C134.935 4.62135 135.057 4.64208 135.146 4.68051C135.223 4.7135 135.247 4.7471 135.228 4.7261C135.209 4.70635 135.168 4.65651 135.111 4.55892C135.054 4.46318 134.989 4.33577 134.918 4.17107L134 4.56702ZM136 4.17223L136.938 4.51798C137.012 4.31737 137.081 4.1578 137.143 4.03422C137.207 3.9083 137.255 3.83613 137.283 3.80057C137.314 3.76131 137.298 3.79615 137.22 3.8374C137.178 3.8599 137.118 3.88408 137.042 3.89693C136.964 3.91002 136.885 3.90886 136.809 3.89412C136.659 3.86496 136.581 3.79529 136.572 3.78737C136.565 3.78022 136.592 3.80416 136.645 3.89191C136.696 3.9762 136.758 4.09746 136.828 4.26432C136.898 4.42981 136.972 4.63005 137.048 4.86795L138 4.56121L138.952 4.25446C138.775 3.70654 138.58 3.2262 138.355 2.85471C138.16 2.53356 137.798 2.04904 137.191 1.93091C136.474 1.79148 135.97 2.2383 135.717 2.55708C135.451 2.89164 135.241 3.34065 135.062 3.82649L136 4.17223ZM138 4.56121L137.048 4.86795C137.225 5.41544 137.422 5.89824 137.654 6.26678C137.851 6.57948 138.254 7.09822 138.932 7.14439C139.655 7.19361 140.109 6.67979 140.323 6.36932C140.568 6.0137 140.77 5.54237 140.948 5.01681L140 4.6974L139.052 4.37798C138.977 4.60215 138.905 4.78535 138.839 4.93168C138.772 5.08006 138.716 5.17617 138.677 5.23348C138.658 5.26116 138.647 5.27375 138.644 5.27603C138.642 5.27854 138.654 5.26528 138.682 5.24604C138.71 5.22638 138.759 5.19813 138.828 5.17669C138.899 5.1546 138.981 5.14308 139.068 5.14901C139.247 5.16124 139.357 5.23888 139.387 5.26415C139.402 5.27679 139.404 5.28113 139.395 5.26953C139.385 5.25822 139.369 5.23621 139.346 5.19983C139.299 5.12543 139.239 5.01227 139.17 4.84972C139.101 4.68887 139.028 4.49158 138.952 4.25446L138 4.56121ZM140 4.6974L140.948 5.01681C141.27 4.05954 141.57 3.41436 141.83 3.02665C142.122 2.59249 142.199 2.71588 142.012 2.71819L142 1.71827L141.988 0.718349C141.135 0.728943 140.545 1.35299 140.17 1.91188C139.763 2.5172 139.396 3.35745 139.052 4.37798L140 4.6974ZM142 1.71827L142.012 2.71819C142.649 2.71029 143.286 2.73108 143.922 2.78059L144 1.7836L144.078 0.786613C143.381 0.732459 142.684 0.709695 141.988 0.718349L142 1.71827ZM144 1.7836L143.922 2.78059C144.399 2.81765 144.911 2.98899 145.464 3.34037L146 2.49609L146.536 1.65181C145.756 1.15688 144.934 0.853226 144.078 0.786613L144 1.7836ZM146 2.49609L145.464 3.34037C145.968 3.66027 146.543 4.24675 147.168 5.18403L148 4.62882L148.832 4.0736C148.124 3.01356 147.365 2.17822 146.536 1.65181L146 2.49609ZM148 4.62882L147.168 5.18403C147.879 6.24799 148.731 7.09133 149.78 7.32771L150 6.35218L150.22 5.37665C149.935 5.31254 149.455 5.00697 148.832 4.0736L148 4.62882ZM150 6.35218L149.78 7.32771C150.614 7.51564 151.452 7.48779 152.278 7.24873L152 6.28815L151.722 5.32756C151.215 5.47437 150.719 5.48921 150.22 5.37665L150 6.35218ZM152 6.28815L152.278 7.24873C153.31 6.95016 154.145 6.05339 154.848 4.93098L154 4.40055L153.152 3.87012C152.521 4.87864 152.024 5.24026 151.722 5.32756L152 6.28815ZM154 4.40055L154.848 4.93098C155.144 4.457 155.39 4.20537 155.563 4.08761C155.709 3.98803 155.758 4.00928 155.77 4.01197L156 3.0388L156.23 2.06564C154.865 1.7428 153.84 2.77042 153.152 3.87012L154 4.40055ZM156 3.0388L155.77 4.01197C156.401 4.16117 157.034 4.34729 157.668 4.57071L158 3.62753L158.332 2.68434C157.633 2.43806 156.932 2.23169 156.23 2.06564L156 3.0388ZM158 3.62753L157.668 4.57071C158.257 4.77824 158.859 4.73914 159.419 4.48109C159.948 4.23704 160.398 3.81756 160.787 3.3222L160 2.705L159.213 2.0878C158.935 2.4423 158.719 2.60152 158.581 2.66498C158.474 2.71444 158.41 2.71167 158.332 2.68434L158 3.62753ZM160 2.705L160.787 3.3222C160.908 3.16787 160.995 3.09574 161.041 3.06627C161.08 3.04116 161.066 3.06062 161.012 3.06129C160.958 3.06197 160.94 3.04235 160.974 3.06332C161.015 3.08897 161.1 3.15569 161.219 3.30481L162 2.68009L162.781 2.05536C162.371 1.54289 161.776 1.05162 160.988 1.06144C160.205 1.0712 159.619 1.57107 159.213 2.0878L160 2.705ZM162 2.68009L161.219 3.30481C161.955 4.224 162.816 4.91301 163.828 5.0894L164 4.10425L164.172 3.11909C163.851 3.06313 163.379 2.8027 162.781 2.05536L162 2.68009ZM164 4.10425L163.828 5.0894C164.062 5.13016 164.527 5.39499 165.158 6.38013L166 5.8411L166.842 5.30207C166.139 4.20376 165.271 3.31068 164.172 3.11909L164 4.10425ZM166 5.8411L165.158 6.38013C165.364 6.7032 165.649 7.04831 166.047 7.25035C166.514 7.48727 167.03 7.47239 167.48 7.22581C167.866 7.01469 168.144 6.6684 168.348 6.34057C168.563 5.99703 168.756 5.57553 168.936 5.09833L168 4.74615L167.064 4.39397C166.91 4.80262 166.771 5.09113 166.652 5.28176C166.523 5.48809 166.467 5.50014 166.52 5.47151C166.558 5.45068 166.631 5.42176 166.73 5.41979C166.83 5.4178 166.908 5.44411 166.953 5.46693C167.017 5.49978 166.969 5.49987 166.842 5.30207L166 5.8411ZM168 4.74615L168.936 5.09833C169.257 4.24631 169.543 3.7265 169.769 3.45366C170 3.17588 169.975 3.36054 169.759 3.30718L170 2.33657L170.241 1.36596C169.359 1.14729 168.667 1.65089 168.231 2.1763C167.79 2.70666 167.41 3.4743 167.064 4.39397L168 4.74615ZM170 2.33657L169.759 3.30718C170.278 3.43581 170.829 3.69679 171.411 4.12121L172 3.3129L172.589 2.50459C171.838 1.95786 171.055 1.56794 170.241 1.36596L170 2.33657ZM172 3.3129L171.411 4.12121C172.084 4.6112 172.757 5.08974 173.43 5.55683L174 4.7353L174.57 3.91377C173.91 3.45549 173.249 2.98576 172.589 2.50459L172 3.3129ZM174 4.7353L173.43 5.55683C174.26 6.13322 175.179 6.41372 176.147 6.27004L176 5.28088L175.853 4.29172C175.488 4.34598 175.073 4.26276 174.57 3.91377L174 4.7353ZM176 5.28088L176.147 6.27004C177.026 6.13946 177.852 5.73332 178.621 5.12495L178 4.34086L177.379 3.55678C176.815 4.00382 176.307 4.22435 175.853 4.29172L176 5.28088ZM178 4.34086L178.621 5.12495C178.671 5.08514 178.648 5.12025 178.562 5.12559C178.469 5.13134 178.422 5.09574 178.445 5.1106C178.478 5.13281 178.563 5.20379 178.687 5.37725C178.808 5.54669 178.945 5.78377 179.095 6.10194L180 5.67651L180.905 5.25107C180.555 4.50751 180.126 3.82876 179.555 3.44739C179.244 3.23963 178.864 3.10304 178.438 3.12941C178.018 3.15538 177.662 3.33273 177.379 3.55678L178 4.34086ZM180 5.67651L179.095 6.10194C179.281 6.49764 179.486 6.85434 179.718 7.14535C179.945 7.42946 180.248 7.71388 180.646 7.86462C181.085 8.03087 181.541 7.99596 181.944 7.79595C182.311 7.61431 182.591 7.31962 182.808 7.02305L182 6.43353L181.192 5.84401C181.075 6.00416 181.023 6.02048 181.056 6.00412C181.079 5.99259 181.126 5.9749 181.191 5.97107C181.258 5.96717 181.315 5.97928 181.354 5.99412C181.419 6.01869 181.388 6.03121 181.282 5.8977C181.181 5.7711 181.052 5.56445 180.905 5.25107L180 5.67651ZM182 6.43353L182.808 7.02305C183.461 6.12817 184.112 5.30158 184.76 4.54261L184 3.893L183.24 3.24339C182.555 4.04487 181.872 4.91197 181.192 5.84401L182 6.43353ZM184 3.893L184.76 4.54261C185.387 3.80914 185.995 3.23951 186.583 2.81875L186 2.00595L185.417 1.19315C184.671 1.728 183.946 2.41641 183.24 3.24339L184 3.893ZM186 2.00595L186.583 2.81875C186.661 2.7625 186.705 2.75025 186.716 2.74782C186.722 2.74651 186.724 2.74581 186.736 2.74907C186.778 2.76054 186.946 2.83315 187.216 3.17432L188 2.55414L188.784 1.93396C188.388 1.43186 187.889 0.991465 187.264 0.820212C186.585 0.633977 185.945 0.815083 185.417 1.19315L186 2.00595ZM188 2.55414L187.216 3.17432C187.932 4.08059 188.691 4.79442 189.503 5.25982L190 4.39223L190.497 3.52465C189.976 3.22579 189.401 2.71423 188.784 1.93396L188 2.55414ZM190 4.39223L189.503 5.25982C190.021 5.55702 190.595 6.07107 191.212 6.8609L192 6.24519L192.788 5.62948C192.072 4.71295 191.312 3.9917 190.497 3.52465L190 4.39223ZM192 6.24519L191.212 6.8609C191.446 7.15998 191.822 7.51644 192.366 7.58986C192.958 7.66957 193.419 7.37806 193.711 7.08344C193.995 6.79603 194.22 6.4129 194.407 6.00946C194.6 5.59361 194.782 5.09142 194.957 4.51469L194 4.2247L193.043 3.93471C192.884 4.45807 192.733 4.86513 192.593 5.16769C192.447 5.48267 192.338 5.62712 192.289 5.67646C192.248 5.71859 192.375 5.57299 192.634 5.60778C192.845 5.63628 192.888 5.75699 192.788 5.62948L192 6.24519ZM194 4.2247L194.957 4.51469C195.034 4.2608 195.107 4.05063 195.177 3.88049C195.247 3.70819 195.306 3.59128 195.352 3.51717C195.374 3.48107 195.389 3.46165 195.395 3.45417C195.402 3.44625 195.394 3.45734 195.369 3.47678C195.344 3.49654 195.295 3.52988 195.222 3.55704C195.145 3.58531 195.053 3.60282 194.951 3.59785C194.85 3.59292 194.765 3.56707 194.701 3.53719C194.64 3.50848 194.602 3.47823 194.587 3.46434C194.571 3.45047 194.57 3.44646 194.581 3.46116C194.592 3.4754 194.611 3.50171 194.635 3.54401C194.685 3.63032 194.747 3.75923 194.818 3.94146C194.889 4.1218 194.963 4.34185 195.041 4.60489L196 4.32258L196.959 4.04027C196.785 3.44668 196.591 2.93035 196.365 2.54031C196.252 2.34506 196.106 2.13795 195.913 1.96755C195.717 1.7933 195.425 1.61867 195.049 1.60024C194.281 1.56264 193.836 2.16395 193.648 2.46928C193.414 2.8498 193.218 3.35716 193.043 3.93471L194 4.2247ZM196 4.32258L195.041 4.60489C195.216 5.19945 195.405 5.71267 195.619 6.11068C195.802 6.45058 196.128 6.95221 196.692 7.13483C197.435 7.375 197.995 6.93241 198.272 6.5966C198.549 6.26065 198.762 5.80098 198.94 5.31111L198 4.9695L197.06 4.62789C196.986 4.83094 196.918 4.98999 196.857 5.11086C196.795 5.23469 196.75 5.29895 196.728 5.32493C196.703 5.35509 196.737 5.30193 196.843 5.2546C196.901 5.22899 196.976 5.20701 197.064 5.20163C197.153 5.19621 197.236 5.20886 197.308 5.23191C197.443 5.27564 197.499 5.34385 197.488 5.33111C197.478 5.32103 197.44 5.27424 197.381 5.16393C197.261 4.94168 197.118 4.57841 196.959 4.04027L196 4.32258ZM198 4.9695L198.94 5.31111C199.262 4.42596 199.572 3.73416 199.867 3.21967C200.169 2.69334 200.42 2.41532 200.593 2.28792L200 1.48247L199.407 0.677023C198.914 1.04017 198.497 1.5886 198.133 2.22461C197.761 2.87246 197.405 3.6789 197.06 4.62789L198 4.9695ZM200 1.48247L200.593 2.28792C201.035 1.96255 201.346 1.95302 201.639 2.0666L202 1.13417L202.361 0.201731C201.321 -0.201385 200.298 0.0212858 199.407 0.677023L200 1.48247ZM202 1.13417L201.639 2.0666C202.044 2.22367 202.57 2.64087 203.186 3.50352L204 2.9225L204.814 2.34149C204.096 1.33639 203.289 0.561363 202.361 0.201731L202 1.13417ZM204 2.9225L203.186 3.50352C203.875 4.46875 204.571 5.32342 205.276 6.06354L206 5.37419L206.724 4.68484C206.095 4.02379 205.458 3.24401 204.814 2.34149L204 2.9225ZM206 5.37419L205.276 6.06354C205.517 6.31736 205.825 6.55242 206.207 6.66963C206.613 6.79409 207.026 6.7611 207.401 6.59675C208.069 6.30412 208.537 5.63463 208.888 4.95922L208 4.49852L207.112 4.03782C206.968 4.31697 206.84 4.50734 206.737 4.62988C206.63 4.7559 206.58 4.77304 206.599 4.76466C206.641 4.74626 206.72 4.73515 206.793 4.75744C206.842 4.77249 206.816 4.78131 206.724 4.68484L206 5.37419ZM208 4.49852L208.888 4.95922C209.032 4.68009 209.16 4.48989 209.263 4.36758C209.37 4.24179 209.42 4.22505 209.4 4.23362C209.357 4.25224 209.278 4.26308 209.205 4.24067C209.156 4.22561 209.182 4.21708 209.275 4.31417L210 3.62584L210.725 2.93752C210.484 2.68331 210.177 2.44768 209.795 2.32969C209.389 2.20437 208.976 2.23646 208.6 2.40053C207.931 2.69257 207.463 3.36254 207.112 4.03782L208 4.49852ZM210 3.62584L209.275 4.31417C209.727 4.79135 210.364 5.18333 211.145 5.06894C211.869 4.9628 212.41 4.45778 212.803 3.92887L212 3.33277L211.197 2.73668C211.07 2.90817 210.969 3.00463 210.902 3.05494C210.837 3.10301 210.823 3.09477 210.855 3.09007C210.894 3.08429 210.921 3.09558 210.913 3.09206C210.895 3.08391 210.83 3.04821 210.725 2.93752L210 3.62584ZM212 3.33277L212.803 3.92887C213.083 3.5521 213.283 3.41895 213.379 3.37952C213.419 3.36344 213.436 3.36435 213.442 3.36467C213.449 3.36508 213.477 3.36757 213.534 3.39741L214 2.51268L214.466 1.62796C213.885 1.32159 213.242 1.27427 212.621 1.52905C212.05 1.76298 211.584 2.21549 211.197 2.73668L212 3.33277ZM214 2.51268L213.534 3.39741C214.276 3.78864 215.034 4.06598 215.804 4.21978L216 3.23913L216.196 2.25847C215.633 2.14613 215.057 1.93918 214.466 1.62796L214 2.51268ZM216 3.23913L215.804 4.21978C216.479 4.35441 217.153 4.48068 217.828 4.59857L218 3.6135L218.172 2.62843C217.513 2.5133 216.855 2.38998 216.196 2.25847L216 3.23913ZM218 3.6135L217.828 4.59857C218.304 4.68182 218.826 4.91189 219.395 5.34456L220 4.54847L220.605 3.75238C219.841 3.17146 219.029 2.77822 218.172 2.62843L218 3.6135ZM220 4.54847L219.395 5.34456C219.996 5.80138 220.613 6.38992 221.243 7.11995L222 6.46623L222.757 5.8125C222.054 4.99912 221.338 4.30916 220.605 3.75238L220 4.54847ZM222 6.46623L221.243 7.11995C221.67 7.61354 222.276 8.05839 223.053 8.0169C223.809 7.97659 224.379 7.49205 224.784 6.97986L224 6.3595L223.216 5.73913C223.094 5.89325 223.003 5.97037 222.95 6.00522C222.902 6.03657 222.904 6.02201 222.947 6.01974C222.992 6.01732 223.01 6.03279 222.983 6.0182C222.949 5.99908 222.871 5.94442 222.757 5.8125L222 6.46623ZM224 6.3595L224.784 6.97986C225.5 6.07443 226.2 4.95761 226.886 3.64244L226 3.17966L225.114 2.71689C224.467 3.95577 223.833 4.95885 223.216 5.73913L224 6.3595ZM226 3.17966L226.886 3.64244C227.194 3.05378 227.456 2.7193 227.651 2.55303C227.742 2.47487 227.796 2.45297 227.811 2.44807C227.818 2.44583 227.818 2.44666 227.812 2.447C227.81 2.44714 227.808 2.44713 227.805 2.44697C227.803 2.44681 227.802 2.44657 227.802 2.44657L228 1.46642L228.198 0.486278C227.479 0.340757 226.843 0.611659 226.349 1.03413C225.877 1.43895 225.473 2.02852 225.114 2.71689L226 3.17966ZM228 1.46642L227.802 2.44657C227.862 2.45873 228.022 2.51839 228.272 2.78421C228.52 3.0475 228.803 3.45821 229.113 4.05308L230 3.59171L230.887 3.13034C230.53 2.44322 230.147 1.85872 229.728 1.41358C229.312 0.970978 228.805 0.608986 228.198 0.486278L228 1.46642ZM230 3.59171L229.113 4.05308C229.305 4.42207 229.53 4.76753 229.805 5.03326C230.084 5.30213 230.483 5.5531 230.992 5.55698C231.503 5.56088 231.907 5.31444 232.189 5.04639C232.467 4.78246 232.693 4.43811 232.886 4.07123L232 3.60696L231.114 3.1427C231.046 3.27231 230.985 3.37349 230.931 3.45067C230.876 3.52861 230.835 3.5735 230.811 3.59643C230.787 3.61953 230.79 3.61034 230.824 3.59446C230.862 3.57663 230.926 3.55642 231.008 3.55704C231.089 3.55767 231.152 3.57874 231.187 3.59601C231.219 3.61133 231.22 3.61913 231.195 3.5943C231.169 3.56971 231.127 3.52296 231.072 3.44331C231.018 3.36441 230.955 3.26153 230.887 3.13034L230 3.59171ZM232 3.60696L232.886 4.07123C233.029 3.79762 233.151 3.62293 233.244 3.51946C233.34 3.41271 233.365 3.42612 233.305 3.44512C233.271 3.45595 233.225 3.46334 233.174 3.45941C233.123 3.45556 233.088 3.4424 233.072 3.43492C233.051 3.4246 233.103 3.44412 233.215 3.58555L234 2.96591L234.785 2.34627C234.354 1.80105 233.626 1.24207 232.695 1.54056C231.952 1.77849 231.46 2.48319 231.114 3.1427L232 3.60696ZM234 2.96591L233.215 3.58555C233.63 4.11097 234.28 4.64172 235.144 4.51631C235.928 4.40248 236.472 3.79123 236.841 3.21606L236 2.67565L235.159 2.13523C235.025 2.34291 234.92 2.4582 234.852 2.51609C234.786 2.57185 234.789 2.54688 234.856 2.53705C234.937 2.52539 234.991 2.55145 234.989 2.55055C234.973 2.54153 234.901 2.49346 234.785 2.34627L234 2.96591ZM236 2.67565L236.841 3.21606C236.902 3.12202 236.952 3.05713 236.991 3.01428C237.03 2.97094 237.05 2.95891 237.046 2.96145C237.04 2.96506 237.006 2.98598 236.945 2.99812C236.88 3.01095 236.813 3.00847 236.754 2.99342C236.647 2.96624 236.649 2.92154 236.743 3.03071C236.832 3.13411 236.954 3.31898 237.1 3.61965L238 3.18383L238.9 2.748C238.712 2.3603 238.501 2.00771 238.257 1.72458C238.018 1.44721 237.687 1.1669 237.246 1.05502C236.221 0.794619 235.521 1.57038 235.159 2.13523L236 2.67565ZM238 3.18383L237.1 3.61965C237.289 4.00997 237.515 4.37925 237.797 4.6584C238.085 4.94342 238.525 5.21806 239.088 5.16859C239.623 5.12149 240.01 4.80063 240.259 4.51086C240.514 4.21296 240.728 3.83127 240.913 3.41551L240 3.00801L239.087 2.6005C239.015 2.7611 238.948 2.89121 238.888 2.99453C238.826 3.09883 238.777 3.16665 238.741 3.20784C238.705 3.25008 238.696 3.25022 238.719 3.23562C238.746 3.21862 238.813 3.18502 238.912 3.17627C239.015 3.16724 239.103 3.18923 239.161 3.21532C239.212 3.23835 239.224 3.25725 239.203 3.23611C239.182 3.21541 239.142 3.16962 239.087 3.08494C239.032 3.0014 238.969 2.89076 238.9 2.748L238 3.18383ZM240 3.00801L240.913 3.41551C240.983 3.25867 241.046 3.13988 241.1 3.05279C241.155 2.96374 241.191 2.92374 241.203 2.91261C241.214 2.90089 241.178 2.94107 241.089 2.97331C240.986 3.01034 240.862 3.0188 240.742 2.98707C240.636 2.95871 240.584 2.91176 240.584 2.91153C240.583 2.9105 240.59 2.91701 240.605 2.93509C240.62 2.95304 240.64 2.97963 240.665 3.01705C240.77 3.17694 240.905 3.45229 241.059 3.88019L242 3.54107L242.941 3.20194C242.762 2.70517 242.564 2.26481 242.335 1.91795C242.127 1.60073 241.786 1.19525 241.258 1.05453C240.63 0.887182 240.115 1.17617 239.797 1.48932C239.5 1.78333 239.272 2.1853 239.087 2.6005L240 3.00801ZM242 3.54107L241.059 3.88019C241.402 4.82998 241.79 5.63268 242.266 6.14783C242.511 6.41377 242.842 6.67095 243.27 6.77199C243.729 6.8805 244.163 6.77713 244.521 6.55933L244 5.70547L243.479 4.85162C243.503 4.83701 243.604 4.79586 243.73 4.8256C243.824 4.84787 243.822 4.88531 243.734 4.79051C243.544 4.58419 243.265 4.10149 242.941 3.20194L242 3.54107ZM244 5.70547L244.521 6.55933C245.196 6.1474 245.872 5.72089 246.547 5.27981L246 4.44262L245.453 3.60542C244.795 4.03535 244.137 4.45074 243.479 4.85162L244 5.70547ZM246 4.44262L246.547 5.27981C247.29 4.7943 248.015 4.17349 248.724 3.42914L248 2.73946L247.276 2.04977C246.652 2.70529 246.043 3.21992 245.453 3.60542L246 4.44262ZM248 2.73946L248.724 3.42914C249.358 2.76384 249.729 2.61639 249.858 2.60246L249.75 1.60828L249.642 0.6141C248.771 0.708533 247.976 1.31519 247.276 2.04977L248 2.73946ZM249.75 1.60828L249.858 2.60246C249.83 2.60541 249.74 2.60743 249.631 2.5527C249.521 2.49753 249.465 2.42213 249.448 2.39287C249.436 2.37166 249.452 2.39111 249.47 2.48524C249.487 2.57628 249.5 2.71003 249.5 2.89586L250.5 2.89586L251.5 2.89586C251.5 2.38859 251.438 1.83444 251.177 1.38622C251.035 1.14235 250.823 0.912784 250.525 0.763858C250.228 0.615374 249.92 0.584059 249.642 0.6141L249.75 1.60828ZM250.5 2.89586L249.503 2.823L249.403 4.19185L250.4 4.26471L251.397 4.33757L251.497 2.96872L250.5 2.89586ZM250.4 4.26471L250.4 5.26471L250.5 5.26471L250.5 4.26471L250.5 3.26471L250.4 3.26471L250.4 4.26471Z"
        fill="#F4AAD8" />
</svg>